# xmcd
#
# Track frame offsets: 
#        150
#        27231
#        50201
#        83676
#        111762
#        133305
#        165064
#        190551
#        209279
#        245286
#
# Disc length: 3604 seconds
#
# Revision: 2
# Processed by: cddbd v1.5.2PL0 Copyright (c) Steve Scherf et al.
# Submitted via: ExactAudioCopy v0.99pb5
#
DISCID=7c0e120a
DTITLE=Bio Ritmo - Bionico
DYEAR=2008
DGENRE=Salsa
TTITLE0=lisandra
TTITLE1=shoe shine
TTITLE2=muchacho
TTITLE3=seguiras criticando
TTITLE4=sombras
TTITLE5=chuleta
TTITLE6=dime vida
TTITLE7=bionic boogaloo
TTITLE8=a la cha
TTITLE9=unknown 
EXTD=YEAR: 2008
EXTT0=
EXTT1=
EXTT2=
EXTT3=
EXTT4=
EXTT5=
EXTT6=
EXTT7=
EXTT8=
EXTT9=
PLAYORDER=
